<?xml version="1.0"?>
<svg xmlns="http://www.w3.org/2000/svg" viewBox="0 0 512 512" width="512" height="512"><g id="Outline"><rect x="272" y="352" width="16" height="16"/><rect x="272" y="408" width="16" height="16"/><rect x="272" y="464" width="16" height="16"/><path d="M437.343,295.27,377.431,280.6,360,267.927V231.966A79.772,79.772,0,0,0,391.6,176h.4a32,32,0,1,0,0-64V64.985a33.743,33.743,0,0,0-37.47-33.543A62.152,62.152,0,0,0,313.373,16H240a8,8,0,0,0-8,8,47.749,47.749,0,0,0,10.175,29.5A61.463,61.463,0,0,0,232,88v24a32,32,0,0,0,0,64h.4A79.768,79.768,0,0,0,264,231.967v35.959L246.572,280.6,240,282.2V224a32.036,32.036,0,0,0-32-32H196.281L185.02,175.107A16.128,16.128,0,0,0,171.68,168H132.32a16.156,16.156,0,0,0-13.377,7.163L107.719,192H96a32.036,32.036,0,0,0-32,32H40a8,8,0,0,0-8,8V452a44,44,0,0,0,83.681,19L200,387.253V496h16V368a8,8,0,0,0-13.645-5.669l-30.422,30.288-42.745-42.745,15.531-17.488A55.67,55.67,0,0,1,160.367,320H208a32.014,32.014,0,0,0,30.022-20.85l6.962-1.695,11.454,33.157A8,8,0,0,0,270.247,333l21.91-27.388L304,352.983V496h16V352.983l11.843-47.373L353.753,333a8,8,0,0,0,13.809-2.386l11.451-33.149,54.514,13.345A39.958,39.958,0,0,1,464,349.68V424H416V368H400v32H336v16h64v80h16V440h48v56h16V349.68A55.927,55.927,0,0,0,437.343,295.27Zm-117.1-9.209h-.005L312,319.015l-8.239-32.955h-.005a7.99,7.99,0,0,0-3.318-4.717L280,267.719v-26.4a79.959,79.959,0,0,0,64,0v26.4l-20.438,13.625A7.99,7.99,0,0,0,320.244,286.061ZM408,144a16.019,16.019,0,0,1-16,16V128A16.018,16.018,0,0,1,408,144ZM376,64.985v29.15a315.751,315.751,0,0,1-16-31.768V47.307a17.778,17.778,0,0,1,16,17.678ZM313.373,32A46.283,46.283,0,0,1,344,43.466V56H280a32.054,32.054,0,0,1-30.987-24ZM248,88a46.781,46.781,0,0,1,6.192-23.56,47.922,47.922,0,0,0,7.7,4A190.09,190.09,0,0,1,248,95.321Zm-32,56a16.018,16.018,0,0,1,16-16v32A16.019,16.019,0,0,1,216,144Zm32,24V122.848a200.864,200.864,0,0,0,29.761-50.9c.742.035,1.488.057,2.239.057h66.75c4.538,10.166,15.768,33.778,29.25,50.832V168a64,64,0,0,1-128,0ZM48,240H96a8.009,8.009,0,0,1,8,8v48a8.009,8.009,0,0,1-8,8H48ZM76,480a28.032,28.032,0,0,1-28-28V320H89l15,112.531V452A28.032,28.032,0,0,1,76,480Zm84.584-76.1L120,444.173V432a7.94,7.94,0,0,0-.07-1.057l-8.19-61.422,6.805-7.662ZM132.731,321.79l-23.784,26.781L105.137,320h29.249C133.83,320.591,133.27,321.178,132.731,321.79ZM224,288a19.382,19.382,0,0,1-.278,3.083A15.98,15.98,0,0,1,208,304H118.624A23.889,23.889,0,0,0,120,296V283.739a47.985,47.985,0,1,0-11.423-56.169A23.856,23.856,0,0,0,96,224H80a16.019,16.019,0,0,1,16-16h16a8,8,0,0,0,6.656-3.562l13.563-20.345c.044-.064.081-.089.1-.093h39.37a.251.251,0,0,1,.054.038l13.6,20.4A8,8,0,0,0,192,208h16a16.019,16.019,0,0,1,16,16ZM120,248a32,32,0,1,1,32,32A32.036,32.036,0,0,1,120,248Zm146.821,63.667-7.18-20.787,12.558-9.132,12.1,8.068Zm90.358,0L339.7,289.816l12.1-8.068,12.558,9.132Z"/><path d="M288,188.56h16.934a115.032,115.032,0,0,0,33.385-4.9l-4.638-15.312a99.1,99.1,0,0,1-28.747,4.216H288Z"/><path d="M276,144a12,12,0,1,0-12-12A12.013,12.013,0,0,0,276,144Z"/><path d="M348,144a12,12,0,1,0-12-12A12.013,12.013,0,0,0,348,144Z"/></g></svg>
